<svg width="18" height="18" viewBox="0 0 18 18" fill="none" xmlns="http://www.w3.org/2000/svg">
<path fill-rule="evenodd" clip-rule="evenodd" d="M17.3727 10.6535C17.475 10.1324 17.5262 9.58295 17.5262 9.03348C17.5262 8.66211 17.5015 8.30022 17.4542 7.94685C17.4191 7.68727 17.188 7.49874 16.9265 7.49874H9.53228C9.2386 7.49874 8.99986 7.73748 8.99986 8.03116V10.1211C8.99986 10.4147 9.2386 10.6535 9.53228 10.6535H13.5823C13.749 10.6535 13.8712 10.824 13.8087 10.9784C12.9229 13.1668 10.5971 14.6031 7.99944 14.1227C6.00431 13.7542 4.36915 12.1721 3.94094 10.1893C3.21431 6.82421 5.75704 3.85141 8.99986 3.85141C10.0628 3.85141 11.0481 4.17067 11.8694 4.71731C12.0892 4.8632 12.3763 4.84899 12.562 4.66046L14.1744 3.01867C14.3942 2.79415 14.3809 2.42088 14.1308 2.23046C12.7656 1.19215 11.0774 0.5612 9.24144 0.51099C4.62589 0.383095 0.628939 4.13278 0.478307 8.74737C0.320097 13.5865 4.19862 17.5598 8.99986 17.5598C13.1522 17.5598 16.6139 14.5851 17.3727 10.6535Z" fill="white"/>
</svg>
