<svg width="18" height="19" viewBox="0 0 18 19" fill="none" xmlns="http://www.w3.org/2000/svg">
<path fill-rule="evenodd" clip-rule="evenodd" d="M17.8379 11.2181C17.9459 10.6681 17.9999 10.0881 17.9999 9.5081C17.9999 9.1161 17.9739 8.7341 17.9239 8.3611C17.8869 8.0871 17.6429 7.8881 17.3669 7.8881H9.5619C9.2519 7.8881 8.9999 8.1401 8.9999 8.4501V10.6561C8.9999 10.9661 9.2519 11.2181 9.5619 11.2181H13.8369C14.0129 11.2181 14.1419 11.3981 14.0759 11.5611C13.1409 13.8711 10.6859 15.3871 7.9439 14.8801C5.83793 14.4911 4.11193 12.8211 3.65993 10.7281C2.89293 7.1761 5.57693 4.03814 8.9999 4.03814C10.1219 4.03814 11.1619 4.37514 12.0289 4.95214C12.2609 5.10614 12.5639 5.09114 12.7599 4.89214L14.4619 3.15914C14.6939 2.92214 14.6799 2.52814 14.4159 2.32714C12.9749 1.23114 11.1929 0.565143 9.2549 0.512143C4.38293 0.377143 0.163934 4.33514 0.0049339 9.2061C-0.162066 14.3141 3.93193 18.5081 8.9999 18.5081C13.3829 18.5081 17.0369 15.3681 17.8379 11.2181Z" fill="#0E121B"/>
</svg>
