<svg width="96" height="29" viewBox="0 0 96 29" fill="none" xmlns="http://www.w3.org/2000/svg">
<g clip-path="url(#clip0_2195_32101)">
<g clip-path="url(#clip1_2195_32101)">
<path fill-rule="evenodd" clip-rule="evenodd" d="M27.8995 2.65804C26.8677 0.692436 23.4741 1.30984 20.5411 2.09524C7.79136 6.79364 3.28056 16.3417 1.69576 22.0299C1.61736 22.1727 1.56976 22.3365 1.56556 22.5115C0.938362 24.9251 0.852962 26.5337 0.851562 26.5869C0.827762 27.1651 1.27716 27.6537 1.85536 27.6775C1.87076 27.6789 1.88616 27.6789 1.90156 27.6789C2.46016 27.6789 2.92496 27.2379 2.95016 26.6737C2.95716 26.5029 3.02156 25.3283 3.41776 23.5727C6.92896 23.4243 10.464 22.1167 13.9359 19.6751C14.2075 19.4847 14.3727 19.1767 14.3825 18.8463C14.3923 18.5145 14.2439 18.1981 13.9849 17.9937L12.3833 16.7253L17.6389 16.2101C17.8531 16.1891 18.0547 16.1037 18.2185 15.9637C18.3319 15.8685 21.0073 13.5781 23.5525 10.9082C27.4235 6.84824 28.7633 4.30444 27.8995 2.65804Z" fill="#335CFF"/>
<path fill-rule="evenodd" clip-rule="evenodd" d="M21.6785 25.5798H12.7045C12.1249 25.5798 11.6545 26.0502 11.6545 26.6298C11.6545 27.2094 12.1249 27.6798 12.7045 27.6798H21.6785C22.2581 27.6798 22.7285 27.2094 22.7285 26.6298C22.7285 26.0502 22.2581 25.5798 21.6785 25.5798Z" fill="#335CFF"/>
</g>
<path d="M43.836 24.115C43.2687 24.115 42.8623 23.9923 42.617 23.747C42.3717 23.4863 42.249 23.0033 42.249 22.298C42.249 21.8227 42.295 21.2477 42.387 20.573C42.479 19.8983 42.64 18.8787 42.87 17.514C42.9007 17.33 43.0233 16.5863 43.238 15.283C43.4527 13.9643 43.6443 12.5843 43.813 11.143C43.9663 9.91633 44.043 8.99633 44.043 8.383C44.043 7.693 43.79 7.348 43.284 7.348C42.9007 7.348 42.4177 7.555 41.835 7.969C41.2677 8.36767 40.6543 9.01167 39.995 9.901C39.7803 10.1923 39.5427 10.338 39.282 10.338C39.0673 10.338 38.8757 10.2383 38.707 10.039C38.5537 9.82433 38.477 9.58667 38.477 9.326C38.477 9.06533 38.523 8.82 38.615 8.59C38.707 8.34467 38.8757 8.05333 39.121 7.716C39.8723 6.68867 40.708 5.899 41.628 5.347C42.548 4.77967 43.514 4.496 44.526 4.496C45.3693 4.496 45.998 4.75667 46.412 5.278C46.8413 5.79933 47.056 6.55833 47.056 7.555C47.056 8.44433 46.9333 9.73233 46.688 11.419C47.4547 9.14967 48.4283 7.43233 49.609 6.267C50.7897 5.08633 52.1773 4.496 53.772 4.496C55.0293 4.496 55.9723 4.85633 56.601 5.577C57.245 6.28233 57.567 7.233 57.567 8.429C57.567 9.10367 57.4673 9.924 57.268 10.89L55.865 17.468C55.7117 18.2347 55.635 18.894 55.635 19.446C55.635 20.09 55.7807 20.573 56.072 20.895C56.3787 21.217 56.8003 21.378 57.337 21.378C57.843 21.378 58.3337 21.2093 58.809 20.872C59.2997 20.5347 59.8747 19.975 60.534 19.193C60.718 18.9783 60.925 18.871 61.155 18.871C61.3543 18.871 61.5077 18.963 61.615 19.147C61.7377 19.331 61.799 19.584 61.799 19.906C61.799 20.504 61.6533 20.9793 61.362 21.332C60.5647 22.298 59.775 23.0033 58.993 23.448C58.211 23.8927 57.3907 24.115 56.532 24.115C55.2287 24.115 54.209 23.7317 53.473 22.965C52.737 22.183 52.369 21.1403 52.369 19.837C52.369 19.331 52.4073 18.779 52.484 18.181C52.576 17.583 52.7217 16.824 52.921 15.904L53.841 11.695C53.8717 11.557 53.9253 11.3117 54.002 10.959C54.0787 10.6063 54.14 10.2767 54.186 9.97C54.232 9.648 54.255 9.33367 54.255 9.027C54.255 8.53633 54.117 8.14533 53.841 7.854C53.565 7.56267 53.174 7.417 52.668 7.417C51.748 7.417 50.828 7.90767 49.908 8.889C48.988 9.87033 48.137 11.4573 47.355 13.65C46.573 15.8273 45.9597 18.618 45.515 22.022C45.4077 22.804 45.2467 23.3483 45.032 23.655C44.8327 23.9617 44.434 24.115 43.836 24.115ZM71.2012 16.939C71.4005 16.939 71.5538 17.0387 71.6611 17.238C71.7685 17.4373 71.8222 17.6903 71.8222 17.997C71.8222 18.733 71.5998 19.17 71.1552 19.308C70.2352 19.63 69.2231 19.814 68.1191 19.86C67.8278 21.148 67.2528 22.183 66.3941 22.965C65.5355 23.7317 64.5618 24.115 63.4731 24.115C62.5531 24.115 61.7635 23.8927 61.1041 23.448C60.4601 23.0033 59.9695 22.413 59.6321 21.677C59.2948 20.941 59.1261 20.1437 59.1261 19.285C59.1261 18.1197 59.3485 17.0847 59.7931 16.18C60.2378 15.26 60.8511 14.547 61.6331 14.041C62.4151 13.5197 63.2815 13.259 64.2321 13.259C65.3975 13.259 66.3328 13.6653 67.0381 14.478C67.7588 15.2753 68.1805 16.2643 68.3031 17.445C69.0238 17.399 69.8825 17.2457 70.8792 16.985C71.0018 16.9543 71.1092 16.939 71.2012 16.939ZM63.6571 21.677C64.1478 21.677 64.5695 21.4777 64.9221 21.079C65.2901 20.6803 65.5355 20.1053 65.6581 19.354C65.1828 19.032 64.8148 18.6103 64.5541 18.089C64.3088 17.5677 64.1861 17.0157 64.1861 16.433C64.1861 16.1877 64.2091 15.9423 64.2551 15.697H64.1401C63.5268 15.697 63.0131 15.996 62.5991 16.594C62.2005 17.1767 62.0011 18.0047 62.0011 19.078C62.0011 19.9213 62.1621 20.5653 62.4841 21.01C62.8215 21.4547 63.2125 21.677 63.6571 21.677ZM80.2301 18.871C80.4294 18.871 80.5828 18.963 80.6901 19.147C80.8128 19.331 80.8741 19.584 80.8741 19.906C80.8741 20.5193 80.7284 20.9947 80.4371 21.332C79.7778 22.1447 79.0571 22.8117 78.2751 23.333C77.4931 23.8543 76.5961 24.115 75.5841 24.115C72.4561 24.115 70.8921 21.9147 70.8921 17.514C70.8921 16.8393 70.9151 16.157 70.9611 15.467H70.0641C69.6041 15.467 69.2898 15.3827 69.1211 15.214C68.9678 15.0453 68.8911 14.777 68.8911 14.409C68.8911 13.5503 69.2361 13.121 69.9261 13.121H71.2371C71.4978 11.4343 71.8964 9.89333 72.4331 8.498C72.9698 7.10267 73.6138 5.991 74.3651 5.163C75.1318 4.335 75.9521 3.921 76.8261 3.921C77.4701 3.921 77.9761 4.20467 78.3441 4.772C78.7121 5.33933 78.8961 6.05233 78.8961 6.911C78.8961 9.28767 77.8994 11.3577 75.9061 13.121H78.4821C78.7274 13.121 78.9038 13.1747 79.0111 13.282C79.1184 13.3893 79.1721 13.5887 79.1721 13.88C79.1721 14.938 78.3058 15.467 76.5731 15.467H73.7671C73.7364 16.2337 73.7211 16.8317 73.7211 17.261C73.7211 18.8557 73.9051 19.975 74.2731 20.619C74.6564 21.263 75.2544 21.585 76.0671 21.585C76.7264 21.585 77.3091 21.3857 77.8151 20.987C78.3211 20.5883 78.9191 19.9903 79.6091 19.193C79.7931 18.9783 80.0001 18.871 80.2301 18.871ZM76.2051 6.129C75.9751 6.129 75.7144 6.42033 75.4231 7.003C75.1471 7.57033 74.8788 8.36767 74.6181 9.395C74.3728 10.407 74.1658 11.534 73.9971 12.776C74.9018 11.994 75.5764 11.12 76.0211 10.154C76.4811 9.17267 76.7111 8.28333 76.7111 7.486C76.7111 6.58133 76.5424 6.129 76.2051 6.129ZM88.7994 18.871C88.9987 18.871 89.152 18.963 89.2594 19.147C89.382 19.331 89.4434 19.584 89.4434 19.906C89.4434 20.5193 89.2977 20.9947 89.0064 21.332C88.439 22.022 87.634 22.6583 86.5914 23.241C85.564 23.8237 84.46 24.115 83.2794 24.115C81.6694 24.115 80.4197 23.678 79.5304 22.804C78.641 21.93 78.1964 20.734 78.1964 19.216C78.1964 18.158 78.4187 17.1767 78.8634 16.272C79.308 15.352 79.9214 14.6237 80.7034 14.087C81.5007 13.5503 82.3977 13.282 83.3944 13.282C84.2837 13.282 84.9967 13.5503 85.5334 14.087C86.07 14.6083 86.3384 15.3213 86.3384 16.226C86.3384 17.284 85.955 18.1963 85.1884 18.963C84.437 19.7143 83.1567 20.3123 81.3474 20.757C81.7307 21.4623 82.459 21.815 83.5324 21.815C84.2224 21.815 85.0044 21.5773 85.8784 21.102C86.7677 20.6113 87.5344 19.975 88.1784 19.193C88.3624 18.9783 88.5694 18.871 88.7994 18.871ZM83.0034 15.536C82.436 15.536 81.953 15.8657 81.5544 16.525C81.171 17.1843 80.9794 17.9817 80.9794 18.917V18.963C81.884 18.7483 82.597 18.4263 83.1184 17.997C83.6397 17.5677 83.9004 17.0693 83.9004 16.502C83.9004 16.2107 83.816 15.9807 83.6474 15.812C83.494 15.628 83.2794 15.536 83.0034 15.536ZM91.3887 24.621C90.5913 24.621 89.978 24.437 89.5487 24.069C89.1347 23.701 88.9277 23.287 88.9277 22.827C88.9277 22.4283 89.0733 22.0833 89.3647 21.792C89.656 21.5007 90.0853 21.355 90.6527 21.355C90.852 21.355 91.082 21.378 91.3427 21.424C91.6187 21.4547 91.8257 21.4777 91.9637 21.493C91.9483 21.0943 91.8563 20.7187 91.6877 20.366C91.5343 20.0133 91.335 19.676 91.0897 19.354C90.8443 19.0167 90.6143 18.7253 90.3997 18.48C89.9243 19.3847 89.449 20.136 88.9737 20.734C88.5137 21.332 88.0077 21.8993 87.4557 22.436C87.1797 22.712 86.8883 22.85 86.5817 22.85C86.3363 22.85 86.137 22.7657 85.9837 22.597C85.8303 22.413 85.7537 22.1907 85.7537 21.93C85.7537 21.6233 85.861 21.3397 86.0757 21.079L86.3747 20.711C87.218 19.6683 87.8543 18.8097 88.2837 18.135C88.5597 17.6903 88.8357 17.1613 89.1117 16.548C89.403 15.9347 89.7787 15.099 90.2387 14.041C90.53 13.3663 91.1357 13.029 92.0557 13.029C92.485 13.029 92.784 13.0673 92.9527 13.144C93.1213 13.2207 93.2057 13.3433 93.2057 13.512C93.2057 13.604 93.175 13.7497 93.1137 13.949C93.0523 14.1483 92.968 14.3477 92.8607 14.547C92.5847 15.099 92.4467 15.5667 92.4467 15.95C92.4467 16.18 92.5233 16.433 92.6767 16.709C92.8453 16.985 93.0983 17.33 93.4357 17.744C93.9263 18.388 94.2943 18.94 94.5397 19.4C94.8003 19.8447 94.9307 20.3353 94.9307 20.872C94.9307 21.516 94.7773 22.1293 94.4707 22.712C94.1793 23.2793 93.7653 23.7393 93.2287 24.092C92.692 24.4447 92.0787 24.621 91.3887 24.621Z" fill="#0E121B"/>
</g>
<defs>
<clipPath id="clip0_2195_32101">
<rect width="95" height="28" fill="white" transform="translate(0.5 0.5)"/>
</clipPath>
<clipPath id="clip1_2195_32101">
<rect width="28" height="28" fill="white" transform="translate(0.5 0.5)"/>
</clipPath>
</defs>
</svg>
